<svg version="1" xmlns="http://www.w3.org/2000/svg" width="1144" height="1144" viewBox="0 0 858.000000 858.000000"><path d="M510.8 62.5c-.2.1-3.7.5-7.8.9-21.5 1.7-38.1 7.7-65.4 23.5-9.4 5.4-18.7 10.8-20.6 11.9-1.9 1.1-8.6 4.9-14.8 8.6-6.2 3.6-11.5 6.6-11.8 6.6-.2 0-2.1 1.1-4.2 2.4-2 1.3-11.1 6.6-20.2 11.9-9.1 5.2-29.3 16.9-45 25.9-15.7 9.1-36.1 20.9-45.5 26.3-9.3 5.4-20.4 12.3-24.5 15.3-27.2 20.1-47.3 52.9-52.4 85.7-.2 1.6-.8 5-1.2 7.5-.9 5.7-.8 235.7.1 243 .6 4.9 1.5 9.8 2.9 16.9.3 1.4 1.6 5.4 2.8 9 1.2 3.6 2.3 6.8 2.3 7.1.1.3.9 2.3 1.9 4.5 1 2.2 2.1 4.9 2.6 6.1 1.6 3.9 10 17.6 14.7 23.7 8.9 11.7 22.9 24.4 35.8 32.4 4 2.5 90.3 52.5 104.5 60.5 6.4 3.7 50.2 28.9 69.4 40.1 10.4 6 21.8 12.3 25.2 13.8 32.1 14.6 68.5 16.3 101.2 4.7 11.3-3.9 17.8-7.3 43.8-22.3 11.8-6.9 21.9-12.5 22.4-12.5.6 0 1-.5 1-1 0-.6.4-1 .9-1 .4 0 10.2-5.5 21.7-12.1 11.5-6.7 22.9-13.3 25.4-14.7 2.5-1.4 5.9-3.3 7.5-4.3 1.7-1 4.4-2.6 6-3.5 29.9-16.7 88-51.2 94.1-56 15.5-12 29.1-28.8 38.2-46.9 4-8.1 9.7-24.1 10.7-30.4.3-1.9.8-3.7 1-4.1 1.6-2.5 2-29.8 2-131.5s-.4-127.9-1.9-130.4c-.2-.3-.7-2.4-1-4.6-1-6.2-7.1-23.6-11.2-31.7-8.6-17.3-23.1-35-37.7-46.1-6-4.7-23.1-15.7-24.2-15.7-.1 0-3.3-1.8-6.9-4-3.7-2.2-9-5.3-11.9-6.9-2.8-1.6-13.5-7.7-23.7-13.6-10.2-5.9-20.5-11.9-23-13.3-2.5-1.3-4.9-2.8-5.5-3.2-.5-.4-3.1-1.9-5.8-3.4-2.6-1.4-11.6-6.6-20-11.4-40.3-23.5-81.8-47.2-87.2-50-11.4-5.7-26.9-10.3-42.5-12.7-3.9-.6-21.7-1.4-22.2-1zm23.7 30.9c8.6 1.9 18.6 5 24.9 8 3.9 1.8 27.6 15.1 52.6 29.6 25 14.4 47.1 27.2 49 28.3 4.2 2.4 55.7 32.1 80.3 46.4 9.8 5.7 20.4 12.3 23.5 14.7 22.8 17.5 37.7 44.2 40.8 72.7.9 8.5 1.1 59 .2 58.6-.4-.1-10.9-10.1-23.4-22.2-12.4-12.1-23.9-23.2-25.5-24.7l-2.8-2.7 2.1-4.3c4.3-8.7 2.3-21.3-4.6-29.5-7.2-8.5-21.3-11.1-32-5.9-16.9 8.3-20.4 31.5-6.5 44 3.9 3.6 4 4.1 1.9 9.1-1.9 4.4-37.8 96.3-39.1 99.7-1.2 3.6-1.5 3.7-5.3 3.4-2.3-.1-6 .3-8.4 1l-4.2 1.2-5.3-7.6c-3-4.3-13.9-20.3-24.2-35.7-10.4-15.4-24.8-36.8-32-47.5-7.2-10.7-20.1-29.9-28.5-42.5-8.5-12.7-15.7-23.2-16-23.5-.5-.5-9.3-13.7-10.4-15.7-.3-.6 0-1.8.8-2.6.9-.8 2.5-3.4 3.8-5.8 3.2-6.1 3.3-18.6.1-24.4-11.5-21.5-44-18.6-50.3 4.5-3.6 13.2 2.4 26.6 14.6 32.5 4.1 2 14.3 2.6 19.9 1.3 3-.8 3.1-.6 13.2 14.5 5.6 8.3 20.6 30.7 33.4 49.7 12.7 19 25.6 38.1 28.5 42.5 3 4.4 5.7 8.4 6.2 9 .4.5 9.2 13.6 19.5 28.9l18.8 27.9-2.5 2.6c-3.1 3.2-5.5 9.9-5.8 15.7-.1 4.1-.3 4.4-3 4.5-1.5.1-3.1.2-3.5.3-.5.1-3.5.6-6.8 1s-7.3.9-9 1.2c-1.6.2-4.8.6-7 .9-2.1.2-7.3.9-11.5 1.5-4.1.6-9.5 1.2-12 1.5-2.5.3-5.4.7-6.5.9-1.1.2-4.7.7-8 1-3.3.4-8.7 1.1-12 1.6-3.3.5-8.7 1.2-12 1.5-3.3.4-6.7.8-7.5 1.1-1.4.3-6 .9-15 1.9-5.6.5-13.4 1.6-15 2-.8.2-4 .7-7 1-3 .3-6.6.8-8 1-1.4.2-5 .7-8 1-3 .4-6.6.8-8 1-7.2 1-10.9 1.5-15 2-7.5.9-12.4 1.6-15 2-1.4.2-5 .7-8 1-3 .3-6.6.7-8 1-1.4.2-4.5.7-7 1-2.5.3-7.6 1-11.5 1.5-8.9 1.2-14.1 1.9-18.5 2.4-8.4 1-14.4 1.8-15.9 2.1-.9.1-4.5.6-8.1 1-3.6.3-7.2.8-8 1-.8.2-4 .7-7 1-3 .3-6.6.8-8 1-14.1 2.2-17 2.4-17 1 0-2.6-6.4-10.6-10.8-13.3-18.7-12-42.9 1.9-41.7 23.9 1.2 22.8 27.6 34 44.8 18.9 4.5-4 8.3-10.5 8.9-15.3.5-3.1 1.2-4 3.6-4.2 4.8-.5 12.9-1.6 14.7-1.9 1.1-.2 4.5-.7 7.6-1 3.1-.4 6.5-.8 7.5-1 1.1-.2 4.6-.7 7.9-1 3.3-.4 7.1-.9 8.5-1.1 1.4-.2 4.8-.6 7.5-1 2.8-.3 6.1-.8 7.5-1 2.6-.4 18.2-2.4 23.5-3 1.7-.2 4.6-.6 6.5-.9 1.9-.3 5.3-.8 7.5-1 2.2-.3 7.6-.9 12-1.5s10-1.4 12.5-1.7c2.5-.3 5.6-.7 7-.9 1.4-.2 6.6-.9 11.5-1.5 5-.6 10.1-1.3 11.5-1.5 1.4-.2 4.8-.7 7.5-1 2.8-.4 6.1-.8 7.5-1 1.4-.2 4.8-.7 7.5-1 5.7-.7 26.7-3.4 30.5-4 1.4-.2 5-.6 8-1s6.6-.8 8-1c3-.5 9.4-1.3 15.3-2 2.3-.3 5.3-.8 6.7-1 1.4-.2 5-.7 8-1.1 6.4-.7 8.3-.9 18.8-2.3 4.2-.6 10-1.3 12.7-1.7 2.8-.3 5.8-.8 6.7-.9.9-.2 4.5-.6 8-1l6.3-.6 2.3 3.6c1.3 2 4.5 5 7.3 6.7 5.5 3.5 5.5 3.7 3.5 13.5-.8 3.7-1.7 8.4-2 10.3-.3 1.9-1.2 7.1-2 11.5-.9 4.4-1.8 9.7-2.2 11.9-.6 3.9-.9 5.9-1.9 10.6-.2 1.4-.7 3.8-.9 5.4-.3 1.6-1 5.2-1.5 8-.6 2.8-1.2 6.4-1.5 8.1-1.2 7.5-4.6 25.8-5 27.3-.3.9-.7 3.5-1.1 5.7-2.1 14.6-3.8 21.5-5.4 21.6-7.6.4-16 4.9-20.2 10.7-9.2 12.9-6 31.4 6.8 39.3 14.2 8.8 32.8 3.3 39.5-11.8 1.1-2.5 2.1-6.8 2.3-9.5.7-11.7-4.6-20.2-17.2-27.3-.2-.1 3-19 4-24 .3-1.1.8-4 1.2-6.5.4-2.5.9-5.4 1.1-6.5.2-1.1.7-3.4.9-5 .5-2.5 2-10.8 3.9-21 .2-1.1.6-3.6 1-5.5.3-1.9.8-4.6 1.1-6 .3-1.4.7-3.9 1-5.5.2-1.7.6-3.9.8-5 .2-1.1.7-3.6 1.1-5.5.3-1.9.8-4.6 1.1-6 .3-1.3.7-4 1-6 .3-1.9 1.6-8.9 2.8-15.5l2.2-12 5-1.1c2.8-.6 6.2-1.7 7.6-2.4 2.5-1.2 2.9-1 6.5 3.1 2.2 2.3 5.3 5.7 6.9 7.5 1.7 1.7 6.4 6.9 10.6 11.5 4.3 4.6 9 9.8 10.5 11.5 1.6 1.6 7.4 7.9 12.9 13.9s10.7 11.6 11.5 12.5c.8.9 5.6 6 10.5 11.5 5 5.4 9.7 10.6 10.5 11.5.8.9 4.4 4.8 8 8.6 3.6 3.9 8.7 9.4 11.4 12.3 4.5 4.8 4.8 5.4 3.6 7.6-1.7 3.2-12.9 14.4-19.3 19.3-4.3 3.3-35.7 22.2-40.7 24.5-.8.4-2.4 1.3-3.5 1.9-2.7 1.8-8.2 5-13.5 8-4.9 2.7-40.1 23.1-81 46.8-67.5 39.1-68.3 39.5-81.1 42.9-11.3 3.1-12.5 3.2-26.4 3.6-8.6.3-15.4-.1-20.3-1-9.3-1.9-18.4-4.5-19.6-5.6-.6-.5-1.7-.9-2.6-.9-.8 0-5.8-2.4-11-5.3-5.2-3-11.5-6.5-14-7.9-6-3.4-51.1-29.6-62.7-36.4-5-3-9.4-5.4-9.7-5.4-.3 0-2.9-1.5-5.8-3.3-2.9-1.9-7.8-4.7-10.8-6.4-3-1.7-9.5-5.4-14.5-8.3-4.9-2.9-10.8-6.3-13-7.5-2.2-1.3-12.3-7.1-22.5-13s-20.5-11.9-22.9-13.3c-17.1-9.6-23.1-13.9-32.7-23.6-14.4-14.6-23.6-32.3-29-55.6-1.2-5.2-1.5-239.5-.3-245.5.5-2.8 1.2-6.3 1.5-7.9 2.7-15.4 13.4-35.7 25.9-49.4 5.1-5.6 15.1-14.1 19.7-16.7 1-.6 12.9-7.5 26.5-15.4 21-12.2 49.5-28.6 60.8-35.1 1.7-1 7.1-4.1 12-7 5-2.9 11-6.4 13.5-7.8 2.5-1.4 6.8-3.8 9.5-5.4 2.8-1.6 5.7-3.3 6.5-3.8 2.8-1.8 43.2-25 43.5-25 .2 0 3.2-1.7 6.6-3.9C478.6 96.7 494.2 92 518 92.5c7.4.2 14.9.6 16.5.9zm229.2 231c8.7 8.4 21.8 21.2 29.2 28.3l13.4 12.9v80c0 44-.3 81.3-.6 82.9-.4 1.7-.9 5-1.2 7.4-1 6.7-5.3 19.7-9.2 27.6-2 3.8-3.7 7.2-4 7.5-.4.4-6.9-6.3-16.7-17.1-2.7-3-9-9.9-14-15.3-12.2-13.3-25.1-27.3-33.5-36.4-8.4-9.2-22.5-24.5-27.5-29.9-9.2-9.8-9-9.3-6.2-15.4 4.8-10.2 2.1-23.6-6.3-31.2-2-1.8-3.5-4-3.3-4.8 2-6.2 41.3-105.4 42.2-106.2.4-.5 3.5-1 6.9-1.2 3.5-.2 7.7-1.1 9.8-2.3 2.1-1.1 4.1-2 4.5-2.1.3 0 7.8 6.8 16.5 15.3zM187.2 95c-20.3 6.6-26.9 32-12.3 46.9 6.8 6.9 10.9 8.6 21.1 8.6 9.9 0 14-1.7 20.6-8.7 9.2-9.6 10.3-24.4 2.7-35.9-6.4-9.7-20.7-14.6-32.1-10.9zM18.7 123.7c-3.9.6-11.3 8-12.5 12.5-3 11 4.8 21.6 16.2 22.3 13.3.8 22.4-13 16.6-25-3.6-7.3-11.5-11.2-20.3-9.8zM108.8 204.6c-18.3 4.6-27.2 25.3-18 41.7 10.2 18.2 35.2 19.9 47.9 3.3 16.1-21.2-4.1-51.6-29.9-45z"/></svg>